<svg width="48" height="48" viewBox="0 0 48 48" fill="none" xmlns="http://www.w3.org/2000/svg">
<path d="M24 3.0082C22.9312 3.0082 22.0714 3.88576 22.0714 4.97657V5.77211C15.5304 6.72349 10.5 12.4728 10.5 19.4112V20.6005C10.5 23.6924 9.69643 26.727 8.16964 29.4007L6.40982 32.4681C6.14464 32.9438 6 33.4769 6 34.0264C6 35.7405 7.35804 37.1265 9.0375 37.1265H38.9625C40.642 37.1265 42 35.7405 42 34.0264C42 33.4769 41.8554 32.9356 41.5902 32.4681L39.8304 29.3925C38.3036 26.7188 37.5 23.6842 37.5 20.5923V19.403C37.5 12.4646 32.4696 6.71529 25.9286 5.76391V4.96837C25.9286 3.87756 25.0687 3 24 3V3.0082ZM37.5321 33.1898H10.4598L11.4964 31.3773C13.3687 28.1049 14.3571 24.3814 14.3571 20.6005V19.4112C14.3571 13.9736 18.6723 9.56942 24 9.56942C29.3277 9.56942 33.6429 13.9736 33.6429 19.4112V20.6005C33.6429 24.3896 34.6312 28.1049 36.4955 31.3773L37.5321 33.1898ZM18.5438 41.0633C19.3393 43.3597 21.4848 45 24 45C26.5152 45 28.6607 43.3597 29.4562 41.0633H18.5438Z" fill="black"/>
</svg>
