<svg width="48" height="48" viewBox="0 0 48 48" fill="none" xmlns="http://www.w3.org/2000/svg">
<path fill-rule="evenodd" clip-rule="evenodd" d="M7.96629 6.20187C6.11919 6.70955 4.41956 8.15213 3.50841 9.98511L3.07452 10.858L3.02254 21.7544C2.96367 34.0907 2.90273 33.5414 4.47889 34.8906L5.20299 35.5104V37.2138C5.20299 40.0011 5.69563 40.5647 8.13153 40.5647C10.4017 40.5647 10.9407 40.0194 10.9407 37.7232V36.1402L12.0976 36.0852L13.2543 36.0301L13.3518 32.6985C13.4629 28.9036 13.8076 27.7657 15.3548 26.0873C16.0002 25.387 17.0324 23.0118 17.0463 22.1947C17.0476 22.1184 15.2176 22.0559 12.9796 22.0559H8.9106L8.34257 21.5469C7.02426 20.3655 7.02426 14.677 8.34257 13.4956L8.9106 12.9865H16.5629H24.2151L25.3548 12.3987C26.3843 11.8678 26.6928 11.8027 28.5414 11.7266L30.588 11.6423L30.4706 11.1576C30.0394 9.37679 28.5025 7.53487 26.7118 6.65298L25.4789 6.04581L17.1455 6.00759C10.9266 5.97902 8.59755 6.02837 7.96629 6.20187ZM26.6875 15.6868C26.3094 16.0049 26.118 16.3347 26.118 16.6677C26.118 17.265 25.8155 17.6131 25.2944 17.6156C22.9747 17.6266 21.3249 19.6822 20.0287 24.1763C19.1843 27.1041 19.109 27.2745 18.39 27.89C16.9004 29.165 16.8636 29.3575 16.8636 35.8622C16.8636 42.1345 16.8608 42.1176 17.9761 42.6943C19.6281 43.5486 21.2283 42.5246 21.3415 40.541L21.3982 39.5467H30.6526H39.907L39.9638 40.541C40.0764 42.5153 41.6772 43.5486 43.3129 42.7027C44.4296 42.1253 44.4418 42.0515 44.4418 35.8174C44.4418 29.3462 44.4109 29.1886 42.8803 27.8404C42.122 27.1724 42.0615 27.0363 41.2965 24.277C40.4262 21.1382 40.0983 20.3561 39.2466 19.3859C38.639 18.6938 36.677 17.6138 36.0276 17.6138C35.4912 17.6138 35.1873 17.2716 35.1873 16.6677C35.1873 16.3347 34.9958 16.0049 34.6178 15.6868C33.7286 14.9385 27.5767 14.9385 26.6875 15.6868ZM35.3724 22.2911C35.8194 22.5131 36.5347 24.2472 36.936 26.0815L37.0676 26.6831H30.6526H24.2377L24.3692 26.0815C25.2527 22.0427 25.2237 22.0613 30.6526 22.0613C33.6705 22.0613 35.0444 22.1282 35.3724 22.2911ZM11.422 27.4975C12.8832 28.9587 11.9013 31.3103 9.83025 31.3103C8.43414 31.3103 7.60917 30.4852 7.60917 29.0893C7.60917 27.6933 8.43414 26.8682 9.83025 26.8682C10.6779 26.8682 10.8676 26.9432 11.422 27.4975ZM25.3035 32.1247C26.8717 33.6928 25.4168 36.3972 23.23 35.9792C21.5371 35.6555 20.8986 33.1875 22.2056 32.0196C23.1035 31.2173 24.4416 31.2627 25.3035 32.1247ZM39.0997 32.0196C40.0439 32.8633 40.0933 34.3508 39.2064 35.2376C38.1477 36.2964 37.0463 36.3035 36.0011 35.2584C33.9706 33.2279 36.9577 30.1057 39.0997 32.0196Z" fill="black"/>
</svg>
