<svg width="48" height="48" viewBox="0 0 48 48" fill="none" xmlns="http://www.w3.org/2000/svg">
<path d="M31.1121 15.25H41.0625V39.0357H6.9375V15.25H16.8879L18.8566 9.96429H29.1516L31.1121 15.25ZM29.6027 6H18.8566C17.216 6 15.7477 7.02411 15.1734 8.56853L14.1562 11.2857H6.9375C4.76367 11.2857 3 13.0614 3 15.25V39.0357C3 41.2243 4.76367 43 6.9375 43H41.0625C43.2363 43 45 41.2243 45 39.0357V15.25C45 13.0614 43.2363 11.2857 41.0625 11.2857H33.8438L32.6707 8.14732C32.1949 6.85067 30.9727 6 29.6027 6ZM24 37.0536C18.5695 37.0536 14.1562 32.6103 14.1562 27.1429C14.1562 21.6754 18.5695 17.2321 24 17.2321C29.4305 17.2321 33.8438 21.6754 33.8438 27.1429C33.8438 32.6103 29.4305 37.0536 24 37.0536ZM24 21.1964C20.7434 21.1964 18.0938 23.8641 18.0938 27.1429C18.0938 30.4217 20.7434 33.0893 24 33.0893C27.2566 33.0893 29.9062 30.4217 29.9062 27.1429C29.9062 23.8641 27.2566 21.1964 24 21.1964Z" fill="black"/>
</svg>
