<svg width="48" height="48" viewBox="0 0 48 48" fill="none" xmlns="http://www.w3.org/2000/svg">
<path d="M42 19.7887V19.1056C42 18.3856 41.4315 17.7781 40.6736 17.7781H38.6279C38.098 17.7781 37.6051 18.0433 37.3016 18.4611C36.8842 17.664 36.2402 16.4135 35.2174 14.4029C34.005 12.0129 32.4508 10.875 26.9946 10.875H20.9314C15.4753 10.875 13.9595 12.0129 12.7086 14.4029C11.6857 16.375 11.0418 17.627 10.6244 18.4611C10.3209 18.0433 9.86645 17.7781 9.29803 17.7781H7.32632C6.60692 17.7781 6 18.347 6 19.1056V19.7887C6 20.5088 6.56842 21.1163 7.32632 21.1163H9.03159C7.28782 22.1772 6.18947 24.1122 6.18947 26.1983C6.18947 29.4609 6.18947 31.9266 7.32632 33.0645V36.0605C7.32632 36.7435 7.89475 37.3125 8.57716 37.3125H12.2527C12.9351 37.3125 13.5035 36.7435 13.5035 36.0605V33.7846H34.4965V36.0605C34.4965 36.7435 35.0649 37.3125 35.7473 37.3125H39.4228C40.1053 37.3125 40.6737 36.7435 40.6737 36.0605V33.0645C41.8105 31.9266 41.8105 29.4611 41.8105 26.1983C41.8105 24.1121 40.7492 22.1768 39.0069 21.1163H40.6737C41.4316 21.1163 42 20.5088 42 19.7887ZM14.3367 15.3125C15.0561 13.8708 15.663 12.7714 20.9683 12.7714H27.0315C32.3368 12.7714 32.9052 13.9093 33.6631 15.3125C34.7614 17.3987 35.4069 18.6877 35.8228 19.4849L35.5578 19.3337L23.9999 19.3323H12.4806L12.1771 19.4834C12.5931 18.6877 13.2383 17.3986 14.3367 15.3125ZM12.2525 28.8534C10.3577 28.8534 8.84193 27.2977 8.84193 25.4011C8.84193 23.5046 10.3577 21.9488 12.2525 21.9488C14.1472 21.9488 15.663 23.5046 15.663 25.4011C15.663 27.2977 14.1472 28.8534 12.2525 28.8534ZM27.714 28.36C27.714 28.8534 27.335 29.2698 26.8421 29.2698L24 29.2713H21.1578C20.6649 29.2713 20.286 28.8534 20.286 28.3615V27.4132C20.286 26.9198 20.6649 26.5035 21.1578 26.5035L24 26.502H26.8421C27.335 26.502 27.714 26.9199 27.714 27.4118V28.36ZM35.7473 28.8534C33.8526 28.8534 32.3368 27.2977 32.3368 25.4011C32.3368 23.5046 33.8526 21.9488 35.7473 21.9488C37.642 21.9488 39.1578 23.5046 39.1578 25.4011C39.1578 27.2977 37.6035 28.8534 35.7473 28.8534Z" fill="black"/>
</svg>
