<svg width="48" height="48" viewBox="0 0 48 48" fill="none" xmlns="http://www.w3.org/2000/svg">
<path d="M21.8571 18.4219V36.1406C21.8571 36.6842 21.4134 37.125 20.8661 37.125H18.8839C18.3366 37.125 17.8929 36.6842 17.8929 36.1406V18.4219C17.8929 17.8783 18.3366 17.4375 18.8839 17.4375H20.8661C21.4134 17.4375 21.8571 17.8783 21.8571 18.4219ZM30.1161 17.4375H28.1339C27.5866 17.4375 27.1429 17.8783 27.1429 18.4219V36.1406C27.1429 36.6842 27.5866 37.125 28.1339 37.125H30.1161C30.6634 37.125 31.1071 36.6842 31.1071 36.1406V18.4219C31.1071 17.8783 30.6634 17.4375 30.1161 17.4375ZM41.0179 9.5625C42.1126 9.5625 43 10.4439 43 11.5312V12.5156C43 13.0592 42.5562 13.5 42.0089 13.5H40.3571V41.0625C40.3571 43.2371 38.5823 45 36.3929 45H12.6071C10.4177 45 8.64286 43.2371 8.64286 41.0625V13.5H6.99107C6.44375 13.5 6 13.0592 6 12.5156V11.5312C6 10.4439 6.88742 9.5625 7.98214 9.5625H14.1277L16.9372 4.91166C17.2894 4.3286 17.7877 3.84608 18.3834 3.51107C18.9791 3.17607 19.652 2.99999 20.3366 3L28.6635 3C29.3481 2.99999 30.021 3.17607 30.6167 3.51107C31.2124 3.84608 31.7106 4.3286 32.0629 4.91166L34.8723 9.5625H41.0179ZM18.7509 9.5625H30.2492L28.8079 7.17646C28.7638 7.10358 28.7016 7.04326 28.6271 7.00138C28.5526 6.95951 28.4685 6.9375 28.3829 6.9375H20.6172C20.5317 6.9375 20.4475 6.95951 20.3731 7.00138C20.2986 7.04326 20.2363 7.10358 20.1923 7.17646L18.7509 9.5625ZM36.3929 13.5H12.6071V40.5703C12.6071 40.7008 12.6594 40.826 12.7523 40.9183C12.8452 41.0106 12.9713 41.0625 13.1027 41.0625H35.8973C36.0287 41.0625 36.1548 41.0106 36.2477 40.9183C36.3406 40.826 36.3929 40.7008 36.3929 40.5703V13.5Z" fill="black"/>
</svg>
