<svg width="48" height="48" viewBox="0 0 48 48" fill="none" xmlns="http://www.w3.org/2000/svg">
<path d="M5.625 29.4557L8.90173 32.7324C10.7114 30.9227 13.6455 30.9227 15.4552 32.7324C17.2649 34.5421 17.2648 37.4761 15.4552 39.2858L18.7319 42.5625L34.5197 26.7747L32.1366 24.3916L33.3281 23.2001L35.7112 25.5832L42.5625 18.7319L39.2858 15.4552C37.4761 17.2648 34.5421 17.2649 32.7324 15.4552C30.9227 13.6455 30.9227 10.7114 32.7324 8.90173L29.4556 5.625L22.6043 12.4763L24.9874 14.8594L23.7959 16.0509L21.4128 13.6679L5.625 29.4557ZM17.5403 22.3065L21.4314 23.9634L24.6709 21.0963L24.2148 25.3505L27.8638 27.4729L23.6841 28.4503L22.7068 32.63L20.5843 28.9809L16.3302 29.437L19.1973 26.1975L17.5403 22.3065ZM24.9874 17.2424L26.1789 16.0509L28.562 18.434L27.3705 19.6255L24.9874 17.2424ZM28.562 20.817L29.7535 19.6255L32.1366 22.0086L30.9451 23.2001L28.562 20.817Z" fill="black"/>
</svg>
