<svg width="48" height="48" viewBox="0 0 48 48" fill="none" xmlns="http://www.w3.org/2000/svg">
<path d="M8.76292 29.2867C8.76292 25.4768 10.162 21.8204 12.7038 18.9929C15.0167 16.4173 18.1058 14.7152 21.4787 14.1317L21.3496 13.4412C21.1964 12.6195 21.415 11.7805 21.9468 11.1366C22.4785 10.4945 23.2615 10.125 24.0944 10.125C25.6347 10.125 26.8875 11.38 26.8875 12.9216C26.8875 13.0942 26.8702 13.2668 26.8393 13.4395L26.7102 14.1317C30.0831 14.7134 33.1704 16.4173 35.4851 18.9929C38.0268 21.8205 39.4259 25.4769 39.4259 29.2867C39.4259 29.7632 39.0405 30.1499 38.5655 30.1499H9.62352C9.14685 30.1499 8.76292 29.7632 8.76292 29.2867ZM42.1104 32.8653C41.971 32.5563 41.6647 32.3578 41.3257 32.3578H6.86141C6.52412 32.3578 6.21781 32.5563 6.0767 32.8653C5.93731 33.1743 5.99066 33.5351 6.21437 33.7906L9.53225 37.5815C9.69573 37.768 9.9315 37.875 10.1793 37.875H38.0098C38.2576 37.875 38.4934 37.768 38.6569 37.5815L41.9748 33.7906C42.1968 33.5351 42.2498 33.1726 42.1104 32.8653Z" fill="black"/>
</svg>
