<svg width="48" height="48" viewBox="0 0 48 48" fill="none" xmlns="http://www.w3.org/2000/svg">
<path d="M43.3273 9.03954L38.909 4.62306C36.7452 2.45916 33.2427 2.45883 31.0783 4.62298L5.04339 30.4878L3.02698 42.7101C2.80754 44.0402 3.95951 45.1924 5.28997 44.9731L17.5122 42.9566L43.3788 16.9217C45.5387 14.7617 45.5593 11.2714 43.3273 9.03954ZM19.4426 28.5574C19.795 28.9098 20.2569 29.0859 20.7187 29.0859C21.1806 29.0859 21.6425 28.9098 21.9949 28.5574L31.759 18.7932L34.1025 21.1368L20.2266 35.1033V31.7109H16.2891V27.7734H12.8966L26.8631 13.8974L29.2067 16.241L19.4425 26.0051C18.7379 26.7099 18.7379 27.8526 19.4426 28.5574ZM9.73738 40.5811L7.41893 38.2627L8.41479 32.2262L9.92417 30.7266H13.3359V34.6641H17.2734V38.0757L15.7737 39.5852L9.73738 40.5811ZM40.826 14.3694L40.8218 14.3736L40.8176 14.3778L36.8777 18.3435L29.6565 11.1223L33.6222 7.18235L33.6263 7.17825L33.6304 7.17415C34.3807 6.42389 35.5973 6.41462 36.3568 7.17407L40.7745 11.5918C41.5848 12.402 41.5898 13.6056 40.826 14.3694Z" fill="black"/>
</svg>
