<svg width="48" height="48" viewBox="0 0 48 48" fill="none" xmlns="http://www.w3.org/2000/svg">
<path d="M41.0625 9H6.9375C4.76285 9 3 10.7349 3 12.875V36.125C3 38.2651 4.76285 40 6.9375 40H41.0625C43.2371 40 45 38.2651 45 36.125V12.875C45 10.7349 43.2371 9 41.0625 9ZM41.0625 12.875V16.1692C39.2232 17.6432 36.2909 19.9353 30.0222 24.766C28.6407 25.8354 25.9041 28.4046 24 28.3747C22.0962 28.405 19.3588 25.835 17.9778 24.766C11.7101 19.936 8.77705 17.6434 6.9375 16.1692V12.875H41.0625ZM6.9375 36.125V21.1415C8.81716 22.6149 11.4828 24.6824 15.5457 27.8134C17.3387 29.2024 20.4786 32.2686 24 32.2499C27.5041 32.2686 30.6043 29.2469 32.4536 27.8141C36.5164 24.6832 39.1828 22.6151 41.0625 21.1416V36.125H6.9375Z" fill="black"/>
</svg>
