<svg width="48" height="48" viewBox="0 0 48 48" fill="none" xmlns="http://www.w3.org/2000/svg">
<path d="M36.9765 41.2292L36.4412 38.7975C36.3221 38.2571 35.7858 37.9198 35.2489 38.047C34.4006 38.2481 33.0709 38.4891 31.5698 38.4891C26.181 38.4891 21.938 35.2241 20.1939 30.4463H30.8542C31.0813 30.4463 31.3014 30.3679 31.4776 30.2241C31.6537 30.0803 31.7751 29.88 31.8213 29.657L32.2319 27.6748C32.3594 27.0595 31.8913 26.4821 31.2649 26.4821H19.0794C18.9564 25.1492 18.9092 23.8174 19.0308 22.5178H32.4054C32.6317 22.5178 32.851 22.4399 33.0269 22.2971C33.2027 22.1543 33.3244 21.9553 33.3715 21.7333L33.7924 19.7511C33.9234 19.1345 33.4547 18.5535 32.8264 18.5535H19.8941C21.6243 13.7337 25.8638 10.4602 31.4182 10.4602C32.6251 10.4602 33.7977 10.6323 34.5662 10.7759C35.0738 10.8708 35.5683 10.5583 35.7017 10.0578L36.3525 7.61586C36.5014 7.05706 36.1444 6.48992 35.5775 6.38511C34.6387 6.21159 33.1581 6 31.5193 6C23.2862 6 16.7296 11.292 14.5747 18.5536H11.9877C11.4422 18.5536 11 18.9973 11 19.5446V21.5268C11 22.0741 11.4422 22.5179 11.9877 22.5179H13.8915C13.7961 23.8204 13.8066 25.4476 13.923 26.4821H11.9877C11.4422 26.4821 11 26.9259 11 27.4732V29.4554C11 30.0027 11.4422 30.4464 11.9877 30.4464H14.642C16.7804 37.7724 23.1552 43 31.5192 43C33.5277 43 35.2545 42.6568 36.2551 42.4036C36.7727 42.2727 37.0917 41.7521 36.9765 41.2292Z" fill="black"/>
</svg>
