<svg width="48" height="48" viewBox="0 0 48 48" fill="none" xmlns="http://www.w3.org/2000/svg">
<path d="M13.9727 18.6413H27.6611C27.8457 18.6415 28.0228 18.7153 28.1533 18.8464C28.2839 18.9775 28.3573 19.1553 28.3575 19.3408V21.3032C28.3573 21.4887 28.2839 21.6665 28.1533 21.7976C28.0228 21.9287 27.8457 22.0025 27.6611 22.0027H13.9727C13.788 22.0025 13.611 21.9287 13.4805 21.7976C13.3499 21.6665 13.2765 21.4887 13.2763 21.3032V19.3408C13.2765 19.1553 13.3499 18.9775 13.4805 18.8464C13.611 18.7153 13.788 18.6415 13.9727 18.6413ZM24.0434 33.0334C24.0434 34.7698 23.5307 36.4672 22.5702 37.911C21.6097 39.3547 20.2446 40.48 18.6474 41.1444C17.0502 41.8088 15.2927 41.9826 13.5972 41.6437C11.9017 41.3048 10.3443 40.4686 9.12198 39.2406C7.89967 38.0127 7.06734 36.4483 6.73026 34.7452C6.39318 33.0421 6.56649 31.2769 7.22827 29.6728C7.89004 28.0686 9.01056 26.6976 10.4481 25.7332C11.8857 24.7687 13.5757 24.2541 15.3045 24.2544C17.6215 24.2574 19.8427 25.1834 21.481 26.8291C23.1192 28.4749 24.0407 30.7061 24.0434 33.0334ZM22.3092 33.0334C22.3093 31.6414 21.8984 30.2806 21.1284 29.1232C20.3585 27.9658 19.2641 27.0637 17.9837 26.531C16.7033 25.9984 15.2944 25.859 13.9351 26.1307C12.5759 26.4024 11.3274 27.0728 10.3475 28.0572C9.36767 29.0416 8.70046 30.2958 8.43029 31.6611C8.16012 33.0264 8.29913 34.4415 8.82973 35.7275C9.36033 37.0134 10.2587 38.1125 11.4112 38.8855C12.5637 39.6586 13.9186 40.0711 15.3045 40.0707C17.1617 40.0682 18.9422 39.3259 20.2553 38.0066C21.5685 36.6874 22.3071 34.8989 22.3092 33.0334ZM31.3521 36.1926H24.5449C24.1223 37.4333 23.4564 38.5765 22.5865 39.5543H31.3521C31.5365 39.5537 31.7131 39.4798 31.8433 39.3487C31.9735 39.2176 32.0468 39.04 32.047 38.8549V36.892C32.0467 36.7069 31.9734 36.5294 31.8432 36.3983C31.713 36.2672 31.5364 36.1933 31.3521 36.1926ZM31.3521 31.8049H24.9884C25.1284 32.9261 25.0754 34.0632 24.8317 35.1663H31.3532C31.5374 35.1654 31.7137 35.0913 31.8437 34.9603C31.9737 34.8292 32.0468 34.6518 32.047 34.4669V32.504C32.0467 32.3189 31.9734 32.1414 31.8432 32.0104C31.713 31.8794 31.5364 31.8055 31.3521 31.8049ZM31.3521 27.4169H23.3C24.0095 28.4319 24.5199 29.5734 24.8038 30.7802H31.3521C31.5367 30.7795 31.7135 30.7054 31.8437 30.574C31.974 30.4426 32.0471 30.2647 32.047 30.0792V28.1164C32.0468 27.9312 31.9735 27.7537 31.8433 27.6226C31.7131 27.4915 31.5365 27.4175 31.3521 27.4169ZM33.3208 23.0289H19.6316C19.4469 23.0291 19.2699 23.1029 19.1394 23.234C19.0088 23.3652 18.9354 23.543 18.9352 23.7284V23.9326C20.2824 24.4781 21.492 25.3178 22.4763 26.3907H33.3208C33.5054 26.3905 33.6824 26.3167 33.813 26.1856C33.9435 26.0545 34.017 25.8767 34.0172 25.6912V23.7284C34.017 23.543 33.9435 23.3652 33.813 23.234C33.6824 23.1029 33.5054 23.0291 33.3208 23.0289ZM21.2875 33.0334C21.2876 34.2225 20.9366 35.3848 20.2789 36.3735C19.6212 37.3622 18.6864 38.1327 17.5927 38.5877C16.499 39.0427 15.2955 39.1617 14.1345 38.9296C12.9734 38.6976 11.907 38.1249 11.07 37.284C10.233 36.4431 9.66312 35.3718 9.43237 34.2055C9.20163 33.0393 9.3204 31.8305 9.77367 30.7321C10.2269 29.6337 10.9943 28.6949 11.9788 28.0346C12.9633 27.3743 14.1206 27.022 15.3045 27.0224C16.8908 27.0246 18.4116 27.6587 19.5332 28.7855C20.6548 29.9124 21.2857 31.44 21.2875 33.0334ZM13.4327 31.4315C13.6134 31.0355 13.9099 30.7042 14.2827 30.4816C14.6555 30.259 15.0869 30.1557 15.5196 30.1853C15.9523 30.215 16.3657 30.3763 16.7049 30.6478C17.0441 30.9192 17.293 31.288 17.4184 31.705C17.4603 31.8326 17.5503 31.9387 17.6692 32.0004C17.788 32.0622 17.9263 32.0746 18.0541 32.0351C18.182 31.9955 18.2894 31.9072 18.3532 31.789C18.4169 31.6709 18.432 31.5323 18.3951 31.4031C18.1967 30.7507 17.7941 30.1799 17.2472 29.7753C16.7003 29.3708 16.0382 29.154 15.359 29.1572C14.6798 29.1604 14.0197 29.3833 13.4766 29.793C12.9335 30.2026 12.5362 30.7772 12.3438 31.4315H11.4232C11.2901 31.4351 11.1637 31.4908 11.0709 31.5866C10.978 31.6824 10.9261 31.8109 10.9261 31.9446C10.9261 32.0783 10.978 32.2067 11.0709 32.3025C11.1637 32.3984 11.2901 32.454 11.4232 32.4577H12.2153V33.6452H11.4232C11.2877 33.6452 11.1578 33.6992 11.0621 33.7954C10.9663 33.8916 10.9125 34.0221 10.9125 34.1581C10.9125 34.2941 10.9663 34.4246 11.0621 34.5208C11.1578 34.617 11.2877 34.671 11.4232 34.671H12.3526C12.5517 35.3199 12.9528 35.8875 13.4969 36.2905C14.041 36.6935 14.6995 36.9106 15.3755 36.9098C16.0515 36.9091 16.7095 36.6906 17.2527 36.2865C17.796 35.8823 18.1959 35.3138 18.3936 34.6645C18.4297 34.5355 18.4141 34.3975 18.3502 34.2799C18.2863 34.1623 18.1792 34.0745 18.0517 34.0351C17.9242 33.9958 17.7865 34.0081 17.6679 34.0693C17.5493 34.1306 17.4592 34.236 17.4169 34.363C17.2916 34.7766 17.045 35.1425 16.7093 35.413C16.3735 35.6834 15.9644 35.8458 15.5353 35.8789C15.1062 35.912 14.6771 35.8143 14.3042 35.5985C13.9313 35.3827 13.632 35.059 13.4452 34.6695H15.068C15.2034 34.6695 15.3333 34.6155 15.4291 34.5193C15.5249 34.4231 15.5787 34.2926 15.5787 34.1566C15.5787 34.0205 15.5249 33.8901 15.4291 33.7939C15.3333 33.6977 15.2034 33.6437 15.068 33.6437H13.2336V32.4561H15.068C15.2011 32.4525 15.3275 32.3968 15.4203 32.301C15.5131 32.2052 15.5651 32.0767 15.5651 31.943C15.5651 31.8093 15.5131 31.6809 15.4203 31.5851C15.3275 31.4892 15.2011 31.4336 15.068 31.4299L13.4327 31.4315ZM10.5811 16.084C10.6291 16.2631 10.7459 16.4158 10.9058 16.5085C11.0658 16.6012 11.2558 16.6264 11.4342 16.5785L24.6566 13.0198C24.8345 12.9711 24.9861 12.8538 25.0783 12.6933C25.1705 12.5329 25.1959 12.3424 25.149 12.1633L24.6433 10.2679C24.6025 10.1196 24.5146 9.98871 24.393 9.89522C24.2713 9.80172 24.1225 9.75073 23.9694 9.75001C23.909 9.75012 23.8488 9.7581 23.7905 9.77376L10.5677 13.3313C10.3899 13.3803 10.2385 13.4977 10.1463 13.6582C10.0541 13.8186 10.0287 14.009 10.0754 14.1882L10.5811 16.084ZM41.4197 14.0813C41.4003 13.9917 41.3633 13.9068 41.3109 13.8316C41.2586 13.7564 41.1918 13.6925 41.1146 13.6435L29.5436 6.29553C29.3874 6.19654 29.1986 6.16385 29.0184 6.20464C28.8383 6.24544 28.6816 6.35639 28.5829 6.51311L27.5387 8.17178C27.4409 8.3289 27.4088 8.51843 27.4494 8.69918C27.4899 8.87993 27.5999 9.0373 27.7553 9.1371L39.3256 16.4847C39.4817 16.5836 39.6705 16.6163 39.8506 16.5756C40.0307 16.5348 40.1874 16.424 40.2863 16.2675L41.3305 14.6084C41.3794 14.5309 41.4124 14.4443 41.4277 14.3539C41.4431 14.2634 41.4403 14.1707 41.4197 14.0813Z" fill="black"/>
</svg>
