<svg width="48" height="48" viewBox="0 0 48 48" fill="none" xmlns="http://www.w3.org/2000/svg">
<path d="M38.6 13.6C39.26 13.6 39.8 14.14 39.8 14.8V17.2H8.6V14.8C8.6 14.14 9.14 13.6 9.8 13.6H38.6ZM39.8 22V34C39.8 34.66 39.26 35.2 38.6 35.2H9.8C9.14 35.2 8.6 34.66 8.6 34V22H39.8ZM9.8 10C7.1525 10 5 12.1525 5 14.8V34C5 36.6475 7.1525 38.8 9.8 38.8H38.6C41.2475 38.8 43.4 36.6475 43.4 34V14.8C43.4 12.1525 41.2475 10 38.6 10H9.8ZM11 31C11 31.9975 11.8025 32.8 12.8 32.8H16.4C17.3975 32.8 18.2 31.9975 18.2 31C18.2 30.0025 17.3975 29.2 16.4 29.2H12.8C11.8025 29.2 11 30.0025 11 31ZM21.8 31C21.8 31.9975 22.6025 32.8 23.6 32.8H28.4C29.3975 32.8 30.2 31.9975 30.2 31C30.2 30.0025 29.3975 29.2 28.4 29.2H23.6C22.6025 29.2 21.8 30.0025 21.8 31Z" fill="black"/>
</svg>
