<svg width="48" height="48" viewBox="0 0 48 48" fill="none" xmlns="http://www.w3.org/2000/svg">
<path d="M16.8 7.1998C16.8 5.8723 17.8725 4.7998 19.2 4.7998H28.8C30.1275 4.7998 31.2 5.8723 31.2 7.1998V9.5998H34.8C38.115 9.5998 40.8 12.2848 40.8 15.5998V25.1998H40.7925C40.8 25.2523 40.8 25.2973 40.8 25.3498C40.8 27.6148 40.23 29.8348 39.15 31.8223L38.1975 33.5698L38.1525 33.6448C36.48 32.7973 34.665 32.3848 32.8425 32.3923C30.405 32.4073 27.975 33.1948 25.9125 34.7473C24.255 35.9923 23.73 35.9923 22.0725 34.7473C19.965 33.1648 17.475 32.3773 14.9925 32.3923C13.2225 32.4073 11.46 32.8198 9.83997 33.6448L9.79497 33.5698L8.84247 31.8223C7.76247 29.8348 7.19247 27.6073 7.19247 25.3498C7.19247 25.2973 7.19247 25.2448 7.19997 25.1998H7.19247V15.5998C7.19247 12.2848 9.87747 9.5998 13.1925 9.5998H16.7925V7.1998H16.8ZM12 23.9998H36V15.5998C36 14.9398 35.46 14.3998 34.8 14.3998H13.2C12.54 14.3998 12 14.9398 12 15.5998V23.9998ZM30.255 40.5073C28.4325 41.8723 26.3325 43.1998 24 43.1998C21.6675 43.1998 19.5675 41.8723 17.745 40.5073C16.1475 39.2998 14.0025 39.2998 12.405 40.5073C10.62 41.8498 8.34747 43.1698 5.79747 43.1548C4.26747 43.1473 2.74497 42.6523 1.31247 41.5723C0.517467 40.9723 0.359967 39.8473 0.959967 39.0523C1.55997 38.2573 2.68497 38.0998 3.47997 38.6998C4.32747 39.3373 5.09997 39.5548 5.81997 39.5623C7.13997 39.5698 8.61747 38.8573 10.2375 37.6348C13.1175 35.4598 17.025 35.4598 19.9125 37.6348C21.7125 38.9923 22.965 39.6073 24 39.6073C25.035 39.6073 26.2875 38.9923 28.0875 37.6348C30.9675 35.4598 34.875 35.4598 37.7625 37.6348C39.03 38.5873 40.23 39.2473 41.3475 39.4798C42.375 39.6898 43.4025 39.5473 44.52 38.7073C45.315 38.1073 46.44 38.2648 47.04 39.0598C47.64 39.8548 47.4825 40.9798 46.6875 41.5798C44.7075 43.0723 42.6225 43.4098 40.635 43.0123C38.7375 42.6298 37.0275 41.5948 35.595 40.5148C33.9975 39.3073 31.8525 39.3073 30.255 40.5148V40.5073Z" fill="black"/>
</svg>
