<svg width="48" height="48" viewBox="0 0 48 48" fill="none" xmlns="http://www.w3.org/2000/svg">
<path d="M3 13.0526C3 11.919 3.9402 11 5.1 11H42.9C44.0598 11 45 11.919 45 13.0526C45 14.1863 44.0598 15.1053 42.9 15.1053H5.1C3.9402 15.1053 3 14.1863 3 13.0526Z" fill="black"/>
<path d="M7.2 24C7.2 22.8664 8.1402 21.9474 9.3 21.9474H38.7C39.8598 21.9474 40.8 22.8664 40.8 24C40.8 25.1336 39.8598 26.0526 38.7 26.0526H9.3C8.1402 26.0526 7.2 25.1336 7.2 24Z" fill="black"/>
<path d="M12.8 34.9474C12.8 33.8137 13.7402 32.8947 14.9 32.8947H34.5C35.6598 32.8947 36.6 33.8137 36.6 34.9474C36.6 36.081 35.6598 37 34.5 37H14.9C13.7402 37 12.8 36.081 12.8 34.9474Z" fill="black"/>
</svg>
