<svg width="48" height="48" viewBox="0 0 48 48" fill="none" xmlns="http://www.w3.org/2000/svg">
<path d="M31.092 18.779L24.5608 26.1327C24.2507 26.4818 23.7493 26.4818 23.4392 26.1327L16.908 18.779C16.4066 18.2144 16.7628 17.2562 17.4688 17.2562H21.8889V5.89136C21.8889 5.40111 22.2451 5 22.6806 5H25.3194C25.7549 5 26.1111 5.40111 26.1111 5.89136V17.2562H30.5313C31.2372 17.2562 31.5934 18.2144 31.092 18.779ZM39.8333 31.1466H31.9167L29.8056 35.9006H18.1944L16.0833 31.1466H8.16667V39.466H39.8333V31.1466ZM43 31.31V39.466C43 41.4344 41.5816 43.0315 39.8333 43.0315H8.16667C6.4184 43.0315 5 41.4344 5 39.466V31.31C5 30.4335 5.28368 29.5942 5.79826 28.9405L12.501 20.4577C12.6528 20.2646 12.8243 20.0937 13.009 19.9377C13.1674 19.8115 13.3785 19.8338 13.517 19.9897L15.1531 21.8393C15.2983 22.0027 15.3049 22.2776 15.1663 22.4484L11.1156 27.5812H18.0427L20.1538 32.3351H27.8528L29.9639 27.5812H36.891L32.8403 22.4484C32.7017 22.2701 32.7083 22.0102 32.8535 21.8393L34.4764 19.9823C34.6083 19.8263 34.826 19.804 34.9844 19.9303C35.1757 20.0863 35.3472 20.2572 35.5056 20.4577L42.2083 28.9405C42.7163 29.5942 43 30.441 43 31.31Z" fill="black"/>
</svg>
