<svg width="48" height="48" viewBox="0 0 48 48" fill="none" xmlns="http://www.w3.org/2000/svg">
<path d="M43.4 8.80102C43.4 8.17852 43.0775 7.60101 42.5525 7.27101C42.0275 6.94101 41.36 6.91101 40.805 7.18851L31.4375 11.8085L18.5 7.40602C17.4725 7.05352 16.3475 7.12101 15.3575 7.57851L6.035 11.9735C5.405 12.266 5 12.9035 5 13.601V40.001C5 40.616 5.315 41.1935 5.8325 41.5235C6.35 41.8535 7.0025 41.891 7.565 41.6285L17.1125 37.136L29.915 41.4035C30.9425 41.7485 32.0525 41.681 33.035 41.216L42.365 36.8285C42.995 36.5285 43.4 35.8985 43.4 35.201V8.80102ZM15.8 11.3585V33.7835L8.6 37.1735V14.7485L15.8 11.3585ZM19.4 34.106V11.5235L29 14.786V37.3085L19.4 34.106ZM32.6 15.251L39.8 11.696V34.061L32.6 37.451V15.251Z" fill="black"/>
</svg>
