<svg width="256" height="256" viewBox="0 0 256 256" fill="none" xmlns="http://www.w3.org/2000/svg">
<path d="M26.7093 82.8804C24.9346 85.5239 23.9911 88.6378 24.0001 91.8219V179.82C23.9919 183.534 25.2823 187.135 27.6482 189.999L85.674 146.316L26.7093 82.8804Z" fill="black"/>
<path d="M104.111 153.12C104.263 153.152 104.411 153.178 104.559 153.201C107.616 153.67 110.755 152.49 113.165 149.964L181.048 78.7987C178.484 76.9787 175.417 76.0007 172.272 76H39.4689C36.8275 75.999 34.2319 76.6895 31.9402 78.0029L98.8628 149.982C100.241 151.551 102.077 152.649 104.111 153.12Z" fill="black"/>
<path d="M136.493 154.068C139.049 146.416 143.315 139.447 148.966 133.69C153.788 128.729 159.557 124.788 165.931 122.1C172.306 119.412 179.155 118.032 186.073 118.043C186.632 118.043 187.187 118.043 187.745 118.074V91.804C187.749 89.1373 187.085 86.5121 185.814 84.168L126.286 146.575L136.493 154.068Z" fill="black"/>
<path d="M134.553 161.534L121.288 151.797L118.328 154.9C116.725 156.622 114.789 158.002 112.637 158.956C110.486 159.911 108.164 160.42 105.81 160.452C105.02 160.453 104.231 160.393 103.45 160.274C103.186 160.233 102.922 160.184 102.659 160.131C99.1622 159.37 95.9935 157.529 93.6008 154.868L90.5428 151.587L33.6257 194.452C35.4767 195.226 37.4629 195.624 39.469 195.624H139.305C134.098 185.067 132.431 173.113 134.553 161.534Z" fill="black"/>
<path d="M218.303 138.814C214.137 134.513 209.15 131.091 203.638 128.751C198.126 126.41 192.201 125.199 186.212 125.188C180.224 125.177 174.294 126.367 168.774 128.688C163.254 131.008 158.254 134.412 154.072 138.698C136.341 156.773 136.39 186.236 154.184 204.378C158.351 208.678 163.338 212.099 168.85 214.439C174.363 216.779 180.288 217.99 186.276 218C192.264 218.011 198.194 216.82 203.714 214.5C209.234 212.179 214.233 208.775 218.415 204.49C236.146 186.414 236.093 156.952 218.303 138.814ZM212.939 173.807L192.776 193.988C192.485 194.279 192.14 194.509 191.76 194.666C191.38 194.824 190.973 194.905 190.563 194.905C190.152 194.905 189.745 194.824 189.365 194.666C188.985 194.509 188.64 194.279 188.349 193.988C188.059 193.697 187.828 193.352 187.671 192.973C187.514 192.593 187.433 192.186 187.433 191.775C187.433 191.364 187.514 190.957 187.671 190.577C187.828 190.198 188.059 189.853 188.349 189.562L203.183 174.719H161.744C160.914 174.719 160.118 174.389 159.531 173.802C158.944 173.216 158.615 172.42 158.615 171.59C158.615 170.759 158.944 169.963 159.531 169.377C160.118 168.79 160.914 168.46 161.744 168.46H203.183L188.349 153.626C188.059 153.335 187.828 152.99 187.671 152.611C187.514 152.231 187.433 151.824 187.433 151.413C187.433 151.002 187.514 150.595 187.671 150.215C187.828 149.836 188.059 149.491 188.349 149.2C188.64 148.909 188.985 148.679 189.365 148.522C189.745 148.364 190.152 148.283 190.563 148.283C190.973 148.283 191.38 148.364 191.76 148.522C192.14 148.679 192.485 148.909 192.776 149.2L212.952 169.376C213.246 169.667 213.479 170.014 213.639 170.396C213.798 170.777 213.88 171.187 213.88 171.601C213.88 172.014 213.798 172.424 213.639 172.806C213.479 173.187 213.246 173.534 212.952 173.825L212.939 173.807Z" fill="black"/>
</svg>
