<svg width="48" height="48" viewBox="0 0 48 48" fill="none" xmlns="http://www.w3.org/2000/svg">
<path d="M30.5714 16.7143C30.5714 14.8214 29.9018 13.2054 28.5625 11.8661C27.2232 10.5268 25.6071 9.85714 23.7143 9.85714C21.8214 9.85714 20.2054 10.5268 18.8661 11.8661C17.5268 13.2054 16.8571 14.8214 16.8571 16.7143C16.8571 18.6071 17.5268 20.2232 18.8661 21.5625C20.2054 22.9018 21.8214 23.5714 23.7143 23.5714C25.6071 23.5714 27.2232 22.9018 28.5625 21.5625C29.9018 20.2232 30.5714 18.6071 30.5714 16.7143ZM37.4286 16.7143C37.4286 18.6607 37.1339 20.2589 36.5446 21.5089L26.7946 42.2411C26.5089 42.8304 26.0848 43.2946 25.5223 43.6339C24.9598 43.9732 24.3571 44.1429 23.7143 44.1429C23.0714 44.1429 22.4688 43.9732 21.9063 43.6339C21.3438 43.2946 20.9286 42.8304 20.6607 42.2411L10.8839 21.5089C10.2946 20.2589 10 18.6607 10 16.7143C10 12.9286 11.3393 9.69643 14.0179 7.01786C16.6964 4.33929 19.9286 3 23.7143 3C27.5 3 30.7321 4.33929 33.4107 7.01786C36.0893 9.69643 37.4286 12.9286 37.4286 16.7143Z" fill="black"/>
</svg>
