<svg width="256" height="256" viewBox="0 0 256 256" fill="none" xmlns="http://www.w3.org/2000/svg">
<path d="M127.5 33C104.669 33 84.9447 49.9997 81.6123 72.5383C81.5448 73.0561 81.4547 73.5965 81.4096 74.1144C81.207 75.8481 81.1169 77.6269 81.1169 79.3832C81.1169 84.5844 81.9726 89.6955 83.6613 94.5365C85.1023 98.6794 88.4122 104.534 93.4783 111.919C104.421 127.815 120.61 146.436 127.523 154.227C134.435 146.459 150.624 127.838 161.567 111.919C166.656 104.511 169.965 98.6569 171.384 94.514C172.465 91.3842 173.208 88.1194 173.591 84.832C173.793 83.0308 173.906 81.1844 173.906 79.3832C173.883 53.8049 153.078 33 127.5 33ZM127.5 94.1537C119.349 94.1537 112.73 87.534 112.73 79.3832C112.73 71.2323 119.349 64.6126 127.5 64.6126C135.651 64.6126 142.271 71.2323 142.271 79.3832C142.271 87.534 135.651 94.1537 127.5 94.1537Z" fill="black"/>
<path d="M222 73.6641V202.569L169.74 222.203V115.882C174.919 108.249 178.229 102.214 179.872 97.4636C179.963 97.2384 180.03 96.9907 180.098 96.7656C180.165 96.5179 180.255 96.2927 180.323 96.0676C180.48 95.5947 180.616 95.1219 180.751 94.6491C180.818 94.3789 180.908 94.1312 180.976 93.861C181.043 93.6358 181.088 93.4332 181.156 93.208C181.223 92.9604 181.268 92.7352 181.336 92.4875C181.381 92.3299 181.404 92.1723 181.449 92.0147C181.494 91.8345 181.539 91.6544 181.561 91.4743C181.764 90.5511 181.944 89.6055 182.102 88.6823L222 73.6641Z" fill="black"/>
<path d="M160.756 128.333V222.63L94.2664 202.388V128.333C107.844 146.121 123.402 163.165 124.19 164.021L127.523 167.646L130.855 164.021C131.621 163.165 147.179 146.121 160.756 128.333Z" fill="black"/>
<path d="M85.2373 115.881V202.546L33 222.202V93.2978L72.1105 78.5723C72.1105 78.8425 72.1105 79.1127 72.1105 79.3828C72.1105 85.5973 73.1237 91.6766 75.1501 97.4858C76.7713 102.237 80.0811 108.271 85.2373 115.881Z" fill="black"/>
</svg>
