<svg width="48" height="48" viewBox="0 0 48 48" fill="none" xmlns="http://www.w3.org/2000/svg">
<path d="M24 10.8004C26.3175 10.8004 28.2 8.91789 28.2 6.60039C28.2 4.28289 26.3175 2.40039 24 2.40039C21.6825 2.40039 19.8 4.28289 19.8 6.60039C19.8 8.91789 21.6825 10.8004 24 10.8004ZM17.505 21.8929L19.2 20.1979V25.3954C19.2 27.4954 20.115 29.4979 21.7125 30.8629L27.0675 35.4529C27.51 35.8354 27.8025 36.3604 27.885 36.9379L28.83 43.5454C29.0175 44.8579 30.2325 45.7729 31.545 45.5854C32.8575 45.3979 33.7725 44.1829 33.585 42.8704L32.64 36.2629C32.3925 34.5304 31.5225 32.9554 30.195 31.8154L27.6075 29.5954V20.9554L27.8925 21.3079C29.2575 23.0179 31.3275 24.0079 33.5175 24.0079H36.0075C37.335 24.0079 38.4075 22.9354 38.4075 21.6079C38.4075 20.2804 37.335 19.2079 36.0075 19.2079H33.5175C32.79 19.2079 32.1 18.8779 31.6425 18.3079L30.3 16.6279C28.575 14.4679 25.9575 13.2079 23.19 13.2079C20.775 13.2079 18.4575 14.1679 16.755 15.8779L14.1075 18.4954C12.7575 19.8454 12 21.6754 12 23.5879V26.4004C12 27.7279 13.0725 28.8004 14.4 28.8004C15.7275 28.8004 16.8 27.7279 16.8 26.4004V23.5879C16.8 22.9504 17.055 22.3429 17.505 21.8929ZM18.435 35.3479C18.3225 35.7379 18.1125 36.0979 17.8275 36.3829L12.705 41.5054C11.7675 42.4429 11.7675 43.9654 12.705 44.9029C13.6425 45.8404 15.165 45.8404 16.1025 44.9029L21.225 39.7804C22.0875 38.9179 22.7175 37.8454 23.055 36.6679L23.22 36.0979L19.77 33.1429C19.5825 32.9779 19.395 32.8129 19.215 32.6329L18.435 35.3479Z" fill="black"/>
</svg>
