<svg width="48" height="48" viewBox="0 0 48 48" fill="none" xmlns="http://www.w3.org/2000/svg">
<path d="M10.8927 33.9607L43.5369 23.5369C44.3429 23.2673 44.925 22.6832 45.2385 21.8744C45.5967 20.886 45.2385 19.6728 44.2981 18.8641C42.1935 16.977 39.238 16.4379 36.5961 17.4713L29.2522 20.2569C28.7597 20.4367 28.1775 20.3917 27.7297 20.1221L17.8783 14.0116C17.6544 13.8768 17.4305 13.8319 17.2066 13.9218L14.6094 14.7754C14.0272 14.9551 13.8481 15.719 14.2959 16.1233L21.3263 23.2223L10.4897 27.3559C9.9971 27.5357 9.41497 27.4907 8.9224 27.1762L5.47439 24.8848C5.25049 24.75 4.98181 24.705 4.75792 24.7949L3.36975 25.379C2.8324 25.5587 2.65328 26.1877 2.96674 26.637L7.31034 32.7476C8.07159 33.9158 9.54931 34.41 10.8927 33.9607Z" fill="black"/>
</svg>
