<svg width="48" height="48" viewBox="0 0 48 48" fill="none" xmlns="http://www.w3.org/2000/svg">
<path d="M40.995 12.2878L40.8467 12.1395C40.6614 11.9542 40.2908 11.6577 39.7719 11.6577H14.4942L14.4571 11.3241C14.1606 9.43387 12.5298 8.0625 10.6025 8.0625H8.008C7.19259 8.0625 6.5625 8.69259 6.5625 9.508C6.5625 10.3234 7.19259 10.9535 8.008 10.9535H10.6395C11.1214 10.9535 11.5291 11.2871 11.6032 11.7689L13.8271 25.112C13.8271 25.2231 13.8641 25.3714 13.9012 25.4826L14.2718 27.7435C14.6425 29.9303 16.6069 31.5982 18.8307 31.5982H36.0284C36.8438 31.5982 37.4739 30.9681 37.4739 30.1527C37.4739 29.3373 36.8438 28.7072 36.0284 28.7072H18.7936C17.9412 28.7072 17.2369 28.1141 17.1258 27.2987L16.9775 26.4833H36.5473C36.8068 26.5204 37.1033 26.4833 37.3627 26.3721C37.7334 26.1868 37.9928 25.8162 38.104 25.4455L41.2174 13.548C41.3286 13.1403 41.2544 12.6955 40.995 12.2878Z" fill="black"/>
<path d="M19.1272 31.8945C16.9033 31.8945 15.1243 33.7107 15.1243 35.8974C15.1243 38.0842 16.9033 39.9374 19.1272 39.9374C21.351 39.9374 23.1301 38.1213 23.1301 35.9345C23.1301 33.7477 21.351 31.8945 19.1272 31.8945ZM19.1272 34.8226C19.7202 34.8226 20.165 35.3044 20.165 35.8974C20.165 36.4905 19.6831 36.9723 19.0901 36.9723C18.4971 36.9723 18.0523 36.4905 18.0523 35.8974C18.0523 35.3044 18.5342 34.8226 19.1272 34.8226Z" fill="black"/>
<path d="M31.136 31.8945C28.9121 31.8945 27.1331 33.7107 27.1331 35.8974C27.1331 38.0842 28.9121 39.9374 31.136 39.9374C33.3598 39.9374 35.1389 38.1213 35.1389 35.9345C35.1389 33.7477 33.3228 31.8945 31.136 31.8945ZM31.0989 34.8226C31.729 34.8226 32.1738 35.3044 32.1738 35.8974C32.1738 36.4905 31.6919 36.9723 31.0989 36.9723C30.5059 36.9723 30.0241 36.4905 30.0241 35.8974C29.987 35.3044 30.4688 34.8226 31.0989 34.8226Z" fill="black"/>
</svg>
