<svg width="48" height="48" viewBox="0 0 48 48" fill="none" xmlns="http://www.w3.org/2000/svg">
<path d="M14.8125 22.6875C16.9871 22.6875 18.75 20.9246 18.75 18.75C18.75 16.5754 16.9871 14.8125 14.8125 14.8125C12.6379 14.8125 10.875 16.5754 10.875 18.75C10.875 20.9246 12.6379 22.6875 14.8125 22.6875Z" fill="black"/>
<path d="M38.4375 17.4375H22.6875C22.3394 17.4375 22.0056 17.5758 21.7594 17.8219C21.5133 18.0681 21.375 18.4019 21.375 18.75V22.6875H42.375V21.375C42.375 20.3307 41.9602 19.3292 41.2217 18.5908C40.4833 17.8523 39.4818 17.4375 38.4375 17.4375Z" fill="black"/>
<path d="M8.25 12.1875C8.25 11.8394 8.11172 11.5056 7.86558 11.2594C7.61944 11.0133 7.2856 10.875 6.9375 10.875C6.5894 10.875 6.25556 11.0133 6.00942 11.2594C5.76328 11.5056 5.625 11.8394 5.625 12.1875V35.8125C5.625 36.1606 5.76328 36.4944 6.00942 36.7406C6.25556 36.9867 6.5894 37.125 6.9375 37.125C7.2856 37.125 7.61944 36.9867 7.86558 36.7406C8.11172 36.4944 8.25 36.1606 8.25 35.8125V33.1875H39.75V35.8125C39.75 36.1606 39.8883 36.4944 40.1344 36.7406C40.3806 36.9867 40.7144 37.125 41.0625 37.125C41.4106 37.125 41.7444 36.9867 41.9906 36.7406C42.2367 36.4944 42.375 36.1606 42.375 35.8125V25.3125H8.25V12.1875Z" fill="black"/>
</svg>
