<svg width="48" height="48" viewBox="0 0 48 48" fill="none" xmlns="http://www.w3.org/2000/svg">
<path d="M37.2257 42.1573L32.138 35.954V35.1637C32.5323 35.1637 32.9267 35.1637 33.321 35.1236C34.9384 35.0835 36.2385 33.7406 36.2385 32.1199C36.1599 28.4062 36.0413 24.6122 35.8842 20.7394C35.7656 17.5783 35.5684 14.4958 35.4113 11.4133C35.3327 9.8327 34.0311 8.56857 32.4538 8.44971C31.5865 8.37099 30.7193 8.33086 29.812 8.29227C29.0634 8.25214 28.3132 8.21355 27.5246 8.17342L28.629 6.43542H30.2464C30.5622 6.43542 30.8379 6.15913 30.8379 5.84271C30.8379 5.52629 30.5622 5.25 30.2464 5.25L24.094 5.25154H17.9415C17.6258 5.25154 17.35 5.52783 17.35 5.84426C17.35 6.16068 17.6258 6.43697 17.9415 6.43697H19.559L20.6634 8.17496C19.9148 8.21509 19.1646 8.25368 18.3759 8.29381C17.5087 8.33394 16.6014 8.41266 15.7342 8.45125C14.1569 8.5701 12.8953 9.83425 12.7767 11.4148C12.6581 14.4972 12.501 17.5798 12.3423 20.7409C12.1852 24.6136 12.0666 28.4059 11.988 32.1214C11.9479 33.7421 13.2496 35.1251 14.9055 35.1251C15.2998 35.1251 15.6941 35.1251 16.0885 35.1653V35.9555L10.9621 42.1573C10.7649 42.395 10.922 42.75 11.2378 42.75H13.5253C13.7625 42.75 13.9982 42.6311 14.1569 42.4336L15.6941 40.1029H32.4937L34.0309 42.4336C34.1496 42.6311 34.3852 42.75 34.6625 42.75H36.95C37.2642 42.75 37.4229 42.395 37.2257 42.1573ZM24.9611 21.0576L27.287 23.5473H24.9611V21.0576ZM24.0938 32.1215H31.1517C31.4675 32.1215 31.7031 32.3592 31.7031 32.6741C31.7031 32.9905 31.4659 33.2267 31.1517 33.2267H17.0356C16.7198 33.2267 16.4842 32.9889 16.4842 32.6741C16.4842 32.3577 16.7214 32.1215 17.0356 32.1215H24.0938ZM31.4675 29.8294C30.5218 29.8294 29.7716 29.0792 29.7716 28.13C29.7716 27.1822 30.5202 26.4305 31.4675 26.4305C32.4133 26.4305 33.1635 27.1807 33.1635 28.13C33.1635 29.0391 32.4149 29.8294 31.4675 29.8294ZM32.4935 12.9956C33.085 12.9956 33.5979 13.4694 33.5979 14.0621L33.9522 22.1625C33.9922 22.9127 33.4008 23.5455 32.6121 23.5455H28.7088L24.9626 19.5155L24.961 12.9956L32.4935 12.9956ZM21.4118 6.437H26.7756C26.6185 6.91085 26.3812 7.58228 26.1841 8.13642C25.4739 8.09629 24.8039 8.09629 24.0938 8.0577C23.4237 8.0577 22.7136 8.09783 22.0035 8.13642C21.8463 7.58232 21.609 6.87074 21.4118 6.437ZM20.6231 9.87441H27.5642C28.0371 9.87441 28.4315 10.2696 28.4315 10.7434C28.4315 11.2173 28.0371 11.6124 27.5642 11.6124H20.6231C20.1502 11.6124 19.7559 11.2173 19.7559 10.7434C19.7559 10.2696 20.1502 9.87441 20.6231 9.87441ZM14.2353 22.1625L14.551 14.1024C14.5911 13.5097 15.064 13.0359 15.6555 13.0359H23.1881V23.5474L15.5755 23.5459C14.8268 23.5459 14.1952 22.9142 14.2353 22.1625ZM15.0239 28.13C15.0239 27.1822 15.7726 26.4305 16.7199 26.4305C17.6657 26.4305 18.4159 27.1807 18.4159 28.13C18.4159 29.0777 17.6673 29.8294 16.7199 29.8294C15.7726 29.8294 15.0239 29.0391 15.0239 28.13ZM24.0937 38.5609H16.6798L17.7057 36.9803H30.4431L31.469 38.5609H24.0937Z" fill="black"/>
</svg>
