<svg width="48" height="48" viewBox="0 0 48 48" fill="none" xmlns="http://www.w3.org/2000/svg">
<path d="M36.125 13.5H32.25V6.9375C32.25 4.76285 30.5151 3 28.375 3H20.625C18.4849 3 16.75 4.76285 16.75 6.9375V13.5H12.875C10.7349 13.5 9 15.2629 9 17.4375V38.4375C9 40.6121 10.7349 42.375 12.875 42.375H14.1667V43.6875C14.1667 44.4127 14.7447 45 15.4583 45H18.0417C18.7553 45 19.3333 44.4127 19.3333 43.6875V42.375H29.6667V43.6875C29.6667 44.4127 30.2447 45 30.9583 45H33.5417C34.2553 45 34.8333 44.4127 34.8333 43.6875V42.375H36.125C38.2651 42.375 40 40.6121 40 38.4375V17.4375C40 15.2629 38.2651 13.5 36.125 13.5ZM20.625 6.9375H28.375V13.5H20.625V6.9375ZM36.125 38.4375H12.875V17.4375H36.125V38.4375ZM17.3958 34.5H31.6042C31.961 34.5 32.25 34.2063 32.25 33.8438V31.2188C32.25 30.8562 31.961 30.5625 31.6042 30.5625H17.3958C17.039 30.5625 16.75 30.8562 16.75 31.2188V33.8438C16.75 34.2063 17.039 34.5 17.3958 34.5ZM17.3958 25.3125H31.6042C31.961 25.3125 32.25 25.0188 32.25 24.6562V22.0312C32.25 21.6687 31.961 21.375 31.6042 21.375H17.3958C17.039 21.375 16.75 21.6687 16.75 22.0312V24.6562C16.75 25.0188 17.039 25.3125 17.3958 25.3125Z" fill="black"/>
</svg>
